HIERARCHY
ROOT Hips
{
 OFFSET 0.000000 0.000000 0.000000
 CHANNELS 6 Xposition Yposition Zposition Yrotation Xrotation Zrotation
 JOINT Chest
 {
  OFFSET 0.000000 9.585900 0.002600
  CHANNELS 3 Yrotation Xrotation Zrotation
  JOINT Chest2
  {
   OFFSET 0.000000 9.601200 -0.005300
   CHANNELS 3 Yrotation Xrotation Zrotation
   JOINT Chest3
   {
    OFFSET 0.000000 9.561800 0.000000
    CHANNELS 3 Yrotation Xrotation Zrotation
    JOINT Chest4
    {
     OFFSET 0.000000 9.552100 0.000000
     CHANNELS 3 Yrotation Xrotation Zrotation
     JOINT Neck
     {
      OFFSET 0.000000 14.453000 0.000000
      CHANNELS 3 Yrotation Xrotation Zrotation
      JOINT Head
      {
       OFFSET 0.000000 8.936500 -0.011300
       CHANNELS 3 Yrotation Xrotation Zrotation
       End Site
       {
        OFFSET 0.000000 17.073600 -0.006000
       }
      }
     }
     JOINT RightCollar
     {
      OFFSET -2.921100 9.558500 0.000000
      CHANNELS 3 Yrotation Xrotation Zrotation
      JOINT RightShoulder
      {
       OFFSET -13.519700 0.000000 0.000000
       CHANNELS 3 Yrotation Xrotation Zrotation
       JOINT RightElbow
       {
        OFFSET 0.000000 -29.696600 0.000000
        CHANNELS 3 Yrotation Xrotation Zrotation
        JOINT RightWrist
        {
         OFFSET 0.000000 -24.004700 0.000000
         CHANNELS 3 Yrotation Xrotation Zrotation
         End Site
         {
          OFFSET 0.000000 -17.728500 0.000000
         }
        }
       }
      }
     }
     JOINT LeftCollar
     {
      OFFSET 2.921100 9.558500 0.000000
      CHANNELS 3 Yrotation Xrotation Zrotation
      JOINT LeftShoulder
      {
       OFFSET 13.519700 0.000000 0.000000
       CHANNELS 3 Yrotation Xrotation Zrotation
       JOINT LeftElbow
       {
        OFFSET 0.000000 -29.696600 0.000000
        CHANNELS 3 Yrotation Xrotation Zrotation
        JOINT LeftWrist
        {
         OFFSET 0.000000 -24.004700 0.000000
         CHANNELS 3 Yrotation Xrotation Zrotation
         End Site
         {
          OFFSET 0.000000 -17.728500 0.000000
         }
        }
       }
      }
     }
    }
   }
  }
 }
 JOINT RightHip
 {
  OFFSET -7.771700 -0.012900 -0.001300
  CHANNELS 3 Yrotation Xrotation Zrotation
  JOINT RightKnee
  {
   OFFSET 0.000000 -40.869800 0.001200
   CHANNELS 3 Yrotation Xrotation Zrotation
   JOINT RightAnkle
   {
    OFFSET 0.000000 -39.717900 0.002100
    CHANNELS 3 Yrotation Xrotation Zrotation
    JOINT RightToe
    {
     OFFSET 0.000000 -4.965400 11.033500
     CHANNELS 3 Yrotation Xrotation Zrotation
     End Site
     {
      OFFSET 0.000000 -1.423100 5.872300
     }
    }
   }
  }
 }
 JOINT LeftHip
 {
  OFFSET 7.771700 -0.012900 -0.001300
  CHANNELS 3 Yrotation Xrotation Zrotation
  JOINT LeftKnee
  {
   OFFSET 0.000000 -40.869800 0.001200
   CHANNELS 3 Yrotation Xrotation Zrotation
   JOINT LeftAnkle
   {
    OFFSET 0.000000 -39.717900 0.002100
    CHANNELS 3 Yrotation Xrotation Zrotation
    JOINT LeftToe
    {
     OFFSET 0.000000 -4.965400 11.033500
     CHANNELS 3 Yrotation Xrotation Zrotation
     End Site
     {
      OFFSET 0.000000 -1.423100 5.872300
     }
    }
   }
  }
 }
}
MOTION
Frames: 8
Frame Time: 0.008333
-28.472621 46.770874 24.787144 178.594164 -31.059640 -3.883405 -0.310582 17.789056 1.410690 -0.030885 1.990068 0.160916 -0.183330 3.346061 0.235572 -0.491134 15.758033 1.151985 -0.757192 17.711702 -1.861733 -0.737901 -2.899711 -3.130155 0.228421 1.534712 -1.845740 4.278981 -5.027365 -15.079394 -70.888812 -73.111159 117.560546 0.899808 5.293257 -20.552957 0.201032 0.224910 1.381168 -3.708749 -1.602854 14.214103 88.576725 -76.016752 -125.717213 -4.132741 10.324472 1.971720 -4.036203 -56.020984 -7.907295 -137.778675 77.968000 -129.444223 -6.278923 -18.871441 -6.229105 -0.617819 -1.431148 -0.116315 -1.914438 -57.842626 10.321665 -112.086759 80.882995 -116.562323 4.423026 -6.546009 5.139631 0.845069 0.036277 0.355812
-28.463949 46.775853 24.774864 178.515324 -31.014967 -3.855697 -0.300673 17.764048 1.399724 -0.022836 1.983977 0.155695 -0.180774 3.343882 0.232606 -0.456938 15.742097 1.128087 -0.729573 17.679900 -1.973522 -0.639474 -2.969227 -3.356700 0.234528 1.515997 -1.830657 4.282178 -5.005282 -15.065641 -70.754108 -73.113140 117.403310 0.914305 5.305440 -20.537398 0.206768 0.228932 1.401235 -3.713948 -1.630339 14.180219 88.470640 -76.055031 -125.605068 -4.149116 10.290987 1.926631 -4.241211 -56.060619 -7.942643 -137.326412 77.944055 -128.978303 -6.356087 -18.517629 -6.270723 -0.574308 -1.474233 -0.163794 -1.863668 -57.877840 10.367577 -112.079291 80.859439 -116.553066 4.448114 -6.574771 5.152036 0.841156 0.039949 0.350225
-28.446897 46.786853 24.754875 178.452419 -31.036333 -3.838050 -0.270185 17.794146 1.403495 -0.050517 1.992663 0.147200 -0.159010 3.335647 0.233618 -0.468009 15.746633 1.076176 -0.662277 17.634796 -2.058832 -0.534180 -3.039465 -3.573929 0.270409 1.480400 -1.800268 4.274122 -4.973031 -15.067676 -70.671361 -73.134089 117.300969 0.909910 5.261785 -20.500424 0.241671 0.215336 1.436677 -3.706749 -1.636577 14.176577 88.518790 -76.049930 -125.670688 -4.164474 10.285528 1.921422 -4.441013 -56.033238 -7.982077 -136.942435 77.930615 -128.577413 -6.471864 -18.192155 -6.313649 -0.480610 -1.485666 -0.185514 -1.819960 -57.844803 10.420155 -112.155247 80.835870 -116.628916 4.520415 -6.612739 5.190647 0.761690 0.034905 0.313179
-28.421841 46.798458 24.735678 178.370519 -31.063261 -3.805995 -0.222876 17.828533 1.404322 -0.112307 2.016854 0.140179 -0.116717 3.318380 0.232087 -0.432645 15.734408 1.068025 -0.638201 17.602770 -2.170530 -0.421034 -3.112727 -3.780855 0.256191 1.441509 -1.819014 4.280301 -4.930792 -15.098434 -70.747117 -73.110198 117.374081 0.913573 5.249282 -20.500392 0.211091 0.227647 1.419847 -3.668236 -1.656428 14.187817 88.681735 -76.014953 -125.851777 -4.188417 10.314783 1.922020 -4.616491 -56.000873 -8.022657 -136.658175 77.932218 -128.272549 -6.535594 -17.906481 -6.365587 -0.412895 -1.460420 -0.210262 -1.748339 -57.806881 10.465946 -112.335255 80.827467 -116.821154 4.549418 -6.663491 5.238440 0.673498 0.034323 0.283063
-28.388898 46.810167 24.717764 178.383162 -31.083404 -3.815319 -0.287947 17.871074 1.388403 -0.122361 2.023753 0.137975 -0.112223 3.317351 0.226703 -0.413749 15.733509 1.044613 -0.583954 17.555799 -2.263657 -0.301632 -3.190656 -3.975801 0.260626 1.392332 -1.829336 4.308030 -4.910892 -15.109487 -70.772612 -73.110166 117.386051 0.912540 5.227366 -20.510297 0.237624 0.210559 1.431249 -3.666773 -1.664503 14.158416 88.750590 -76.020034 -125.918204 -4.208879 10.309454 1.910062 -4.866870 -55.971416 -8.058761 -136.492603 77.953501 -128.084399 -6.659043 -17.670824 -6.437550 -0.283235 -1.407547 -0.198275 -1.747393 -57.775664 10.495515 -112.293816 80.801826 -116.771269 4.654649 -6.681339 5.273541 0.570418 0.027515 0.238284
-28.348034 46.820663 24.703257 178.381426 -31.086906 -3.812975 -0.396714 17.925932 1.354925 -0.067768 2.000443 0.134927 -0.109775 3.317480 0.222526 -0.413809 15.740203 1.020042 -0.528340 17.513985 -2.302578 -0.174016 -3.282294 -4.205536 0.270602 1.345363 -1.845401 4.334166 -4.906717 -15.123315 -70.789522 -73.087288 117.404918 0.949331 5.193230 -20.545906 0.218213 0.228969 1.432381 -3.628075 -1.704024 14.084547 88.841617 -76.078176 -125.988108 -4.226495 10.305807 1.895791 -5.108359 -55.965088 -8.073108 -136.412135 77.990870 -127.991326 -6.757799 -17.456775 -6.496395 -0.191997 -1.344408 -0.200874 -1.723326 -57.762013 10.511547 -112.246707 80.776575 -116.709230 4.716471 -6.701437 5.289921 0.488636 0.026776 0.216416
-28.302689 46.832572 24.687454 178.342399 -31.106296 -3.773288 -0.419658 17.971957 1.322344 -0.066830 2.000892 0.132406 -0.108360 3.318210 0.218348 -0.387690 15.725815 1.009358 -0.503009 17.489988 -2.347463 -0.046863 -3.374535 -4.413188 0.210790 1.325673 -1.880368 4.393473 -4.917242 -15.129328 -70.797357 -73.063055 117.423228 0.940513 5.178050 -20.539778 0.197628 0.244089 1.433012 -3.607706 -1.723737 14.043819 88.919224 -76.092849 -126.055558 -4.241162 10.305347 1.886744 -5.289129 -55.955805 -8.096129 -136.361210 78.033057 -127.945529 -6.870916 -17.276631 -6.537303 -0.094078 -1.257752 -0.199488 -1.634388 -57.734037 10.493721 -112.256711 80.756490 -116.698788 4.800297 -6.719466 5.328703 0.382597 0.015631 0.160936
-28.253452 46.842906 24.675635 178.261795 -31.105489 -3.703004 -0.406184 17.997190 1.284375 -0.066641 2.001657 0.129894 -0.108177 3.319432 0.214214 -0.366159 15.709831 0.996274 -0.474348 17.457259 -2.432609 0.075530 -3.457888 -4.553158 0.189140 1.320345 -1.893563 4.416875 -4.938079 -15.145260 -70.800802 -73.069456 117.419308 0.941400 5.145807 -20.527983 0.195817 0.243984 1.435876 -3.610579 -1.725844 13.999267 88.989312 -76.106886 -126.115023 -4.259169 10.317833 1.893886 -5.413907 -55.979702 -8.118258 -136.315493 78.073531 -127.919360 -6.936547 -17.074944 -6.551895 -0.042302 -1.190776 -0.216194 -1.497154 -57.717065 10.471251 -112.171403 80.725010 -116.597022 4.828916 -6.755236 5.343546 0.341611 0.025532 0.140140
